 http://desibbrg.org/images/66952052392581364616.gif 
http://desibbrg.org/images/66107961738298837838.jpg 
http://desibbrg.org/images/39419437867492558190.png 
http://desibbrg.org/images/19677822488232927341.png 
http://desibbrg.org/images/69955008783877423399.png 
http://desibbrg.org/images/30134835063242753435.png 
http://desibbrg.org/images/35740297351187638045.png

Media Info - 
Video
ID : 0
Format : MPEG-4 Visual
Format profile : Advanced Simple@L5
Format settings, BVOP : 2
Format settings, QPel : No
Format settings, GMC : No warppoints
Format settings, Matrix : Default (H.263)
Codec ID : XVID
Codec ID/Hint : XviD
Duration : 2h 21mn
Bit rate : 452 Kbps
Width : 608 pixels
Height : 256 pixels
Display aspect ratio : 2.40:1
Frame rate : 29.970 fps
Color space : YUV
Chroma subsampling : 4:2:0
Bit depth : 8 bits
Scan type : Progressive
Compression mode : Lossy
Bits/(Pixel*Frame) : 0.097
Stream size : 456 MiB (82%)
Writing library : XviD 1.2.1 (UTC 2008-12-04)

Audio
ID : 1
Format : MPEG Audio
Format version : Version 1
Format profile : Layer 3
Mode : Joint stereo
Mode extension : MS Stereo
Codec ID : 55
Codec ID/Hint : MP3
Duration : 2h 18mn
Bit rate mode : Variable
Bit rate : 80.0 Kbps
Channel(s) : 2 channels
Sampling rate : 48.0 KHz
Compression mode : Lossy
Stream size : 86.2 MiB (15%)
Alignment : Split accross interleaves
Interleave, duration : 24 ms (0.73 video frame)
Interleave, preload duration : 508 ms

Ripper : BarbieGirl

Seeding 24x7... Extreme Seeding...


Enjoy!
